<svg width="277" height="256" viewBox="0 0 277 256" fill="none" xmlns="http://www.w3.org/2000/svg">
<rect x="9" y="9" width="259" height="238" stroke="white" stroke-width="18"/>
<path d="M40 139H129V156H40V139Z" fill="white"/>
<path d="M57.5 130H39.5625V37.875H67.5625L84.3125 110.312L100.938 37.875H128.625V130H110.688V67.6875C110.688 65.8958 110.708 63.3958 110.75 60.1875C110.792 56.9375 110.812 54.4375 110.812 52.6875L93.375 130H74.6875L57.375 52.6875C57.375 54.4375 57.3958 56.9375 57.4375 60.1875C57.4792 63.3958 57.5 65.8958 57.5 67.6875V130Z" fill="white"/>
<path d="M185.875 130H166.625L129 64.5625V130H111.062V37.875H131.25L167.938 102.188V37.875H185.875V130Z" fill="white"/>
<path d="M231.5 89.75H186.75V113.438H237.75V130H167.938V37.875H235.5V54.1875H186.75V73.75H231.5V89.75Z" fill="white"/>
</svg>
