<svg width="264" height="264" viewBox="0 0 264 264" fill="none" xmlns="http://www.w3.org/2000/svg">
<rect x="8" y="8" width="248" height="248" stroke="#1a1a2e" stroke-width="16"/>
<path d="M33 129H122V146H33V129Z" fill="#1a1a2e"/>
<path d="M50.5 120H32.5625V27.875H60.5625L77.3125 100.312L93.9375 27.875H121.625V120H103.688V57.6875C103.688 55.8958 103.708 53.3958 103.75 50.1875C103.792 46.9375 103.812 44.4375 103.812 42.6875L86.375 120H67.6875L50.375 42.6875C50.375 44.4375 50.3958 46.9375 50.4375 50.1875C50.4792 53.3958 50.5 55.8958 50.5 57.6875V120Z" fill="#1a1a2e"/>
<path d="M178.875 120H159.625L122 54.5625V120H104.062V27.875H124.25L160.938 92.1875V27.875H178.875V120Z" fill="#1a1a2e"/>
<path d="M224.5 79.75H179.75V103.438H230.75V120H160.938V27.875H228.5V44.1875H179.75V63.75H224.5V79.75Z" fill="#1a1a2e"/>
</svg>
